<svg width="30" height="37" viewBox="0 0 30 37" fill="none" xmlns="http://www.w3.org/2000/svg">
<path d="M27.4485 32.3563C25.9139 34.649 24.2868 36.8862 21.8092 36.9232C19.3317 36.9786 18.5366 35.4625 15.7263 35.4625C12.8974 35.4625 12.0284 36.8862 9.68025 36.9786C7.25815 37.0711 5.4277 34.538 3.8746 32.3008C0.712929 27.734 -1.70917 19.3213 1.54495 13.6636C3.15352 10.8532 6.03785 9.07825 9.16255 9.02278C11.5292 8.98581 13.7849 10.6314 15.2455 10.6314C16.6877 10.6314 19.4241 8.653 22.29 8.94883C23.4918 9.00429 26.8568 9.42955 29.0201 12.6097C28.8537 12.7206 25.0079 14.9763 25.0449 19.6541C25.1003 25.2379 29.9445 27.1053 30 27.1238C29.9445 27.2532 29.2234 29.7863 27.4485 32.3563ZM16.8911 2.7734C18.2408 1.23878 20.478 0.0739572 22.3269 0C22.5673 2.16325 21.6983 4.34499 20.404 5.89809C19.1283 7.46968 17.0205 8.68998 14.9497 8.52357C14.6724 6.3973 15.7078 4.17858 16.8911 2.7734Z" fill="black"/>
</svg>
