<svg width="150" height="175" viewBox="0 0 150 175" fill="none" xmlns="http://www.w3.org/2000/svg">
<rect x="44" y="23" width="61" height="88" rx="30.5" stroke="#CAFFCF" stroke-width="2"/>
<g filter="url(#filter0_d)">
<rect x="50" y="30" width="50" height="75" rx="25" fill="white"/>
</g>
<path d="M74.1161 77.8839C74.6043 78.372 75.3957 78.372 75.8839 77.8839L83.8388 69.9289C84.327 69.4408 84.327 68.6493 83.8388 68.1612C83.3507 67.673 82.5592 67.673 82.0711 68.1612L75 75.2322L67.9289 68.1612C67.4408 67.673 66.6493 67.673 66.1612 68.1612C65.673 68.6493 65.673 69.4408 66.1612 69.9289L74.1161 77.8839ZM73.75 57V77H76.25V57H73.75Z" fill="#221314"/>
<defs>
<filter id="filter0_d" x="0" y="0" width="150" height="175" filterUnits="userSpaceOnUse" color-interpolation-filters="sRGB">
<feFlood flood-opacity="0" result="BackgroundImageFix"/>
<feColorMatrix in="SourceAlpha" type="matrix" values="0 0 0 0 0 0 0 0 0 0 0 0 0 0 0 0 0 0 127 0"/>
<feOffset dy="20"/>
<feGaussianBlur stdDeviation="25"/>
<feColorMatrix type="matrix" values="0 0 0 0 0.0784314 0 0 0 0 0.0784314 0 0 0 0 0.0784314 0 0 0 0.15 0"/>
<feBlend mode="normal" in2="BackgroundImageFix" result="effect1_dropShadow"/>
<feBlend mode="normal" in="SourceGraphic" in2="effect1_dropShadow" result="shape"/>
</filter>
</defs>
</svg>
