<svg width="30" height="34" viewBox="0 0 30 34" fill="none" xmlns="http://www.w3.org/2000/svg">
<path d="M28.5452 14.42L22.7993 11.1016L14.9271 16.9835L22.7992 22.8655L28.5646 19.5357C29.4636 18.9895 30 18.0352 30 16.9837C30 15.9321 29.4635 14.9779 28.5452 14.42Z" fill="#FF9100"/>
<path d="M16.9174 16.9837C16.9087 16.9948 9.95703 25.9327 9.95139 25.9399L0.895625 33.0718C0.338281 32.5144 0 31.7583 0 30.9222V2.99581C0 2.15996 0.338281 1.40359 0.895625 0.846375L9.95139 8.02743C9.95703 8.03466 16.9087 16.9726 16.9174 16.9837Z" fill="#25D9F8"/>
<path d="M16.9174 16.9837L14.9271 19.5511V14.4162L16.9174 16.9837Z" fill="#00C0F1"/>
<path d="M22.8087 11.0924L16.9174 16.9837L0.89563 0.846435C1.09459 0.667243 1.29369 0.527924 1.51262 0.388604C2.46788 -0.148705 3.60241 -0.128868 4.53791 0.448379L14.9271 6.55462L22.8087 11.0924Z" fill="#7FE881"/>
<path d="M22.8087 11.0924L16.9174 16.9837L14.9271 14.9934V6.55463L22.8087 11.0924Z" fill="#5BC980"/>
<path d="M22.8087 22.8748L14.9271 27.4127L4.518 33.4897C4.04034 33.7683 3.52286 33.9275 2.98542 33.9275C2.48785 33.9275 1.99028 33.7882 1.51262 33.5295C1.29369 33.3901 1.09459 33.2509 0.89563 33.0718L16.9174 16.9837L22.8087 22.8748Z" fill="#FF637B"/>
<path d="M22.8087 22.8748L14.9271 27.4127V18.974L16.9174 16.9837L22.8087 22.8748Z" fill="#E63950"/>
</svg>
